<svg xmlns="http://www.w3.org/2000/svg" width="880" height="306" viewBox="0 0 880 306" role="img" aria-labelledby="title desc"><title id="title">Engineering expertise</title><desc id="desc">Agent systems (loom.ai): Tool execution in a real Linux sandbox; model routing with provider fallback. Grounded generation (loom.ai · lazyhire): Answers that cite sources or abstain; CV drafts checked for invented claims. Applied ML (InForge-AI · InsightGenie): Cleaning, EDA and model benchmarking, with local fallbacks when LLMs fail. Principles: Deterministic core, Cite or abstain, Fail over, not out, Documented limits.</desc><style>.s{font-family:-apple-system,BlinkMacSystemFont,'Segoe UI','Noto Sans',Helvetica,Arial,sans-serif}.m{font-family:ui-monospace,SFMono-Regular,'SF Mono',Menlo,Consolas,'Liberation Mono',monospace}.f{font-family:Georgia,'Times New Roman',Times,serif}@media(prefers-reduced-motion:reduce){*{animation:none!important}.motion{display:none}}</style><defs><linearGradient id="e0b" x1="0" y1="0" x2="0" y2="240" gradientUnits="userSpaceOnUse"><stop stop-color="#10151D"/><stop offset=".55" stop-color="#0C1421"/><stop offset="1" stop-color="#182F56"/></linearGradient><radialGradient id="e0g" cx="0" cy="0" r="1" gradientUnits="userSpaceOnUse" gradientTransform="translate(141.3 254.4) scale(175.3 139.2)"><stop stop-color="#3B82F6" stop-opacity="0.85"/><stop offset=".45" stop-color="#3B82F6" stop-opacity="0.27"/><stop offset="1" stop-color="#3B82F6" stop-opacity="0"/></radialGradient><linearGradient id="e0r" x1="0" y1="0" x2="0" y2="240" gradientUnits="userSpaceOnUse"><stop stop-color="#FFFFFF" stop-opacity="0.11"/><stop offset=".5" stop-color="#93C5FD" stop-opacity="0.22"/><stop offset="1" stop-color="#93C5FD" stop-opacity="0.95"/></linearGradient><clipPath id="e0k"><rect x="1.0" y="1" width="280.6666666666667" height="238" rx="19"/></clipPath><filter id="e0f" x="-20%" y="-200%" width="140%" height="500%"><feGaussianBlur stdDeviation="9"/></filter></defs><rect x="0.75" y="0.75" width="281.1666666666667" height="238.5" rx="20" fill="url(#e0b)"/><g clip-path="url(#e0k)"><rect x="0.0" y="0" width="282.6666666666667" height="240" fill="url(#e0g)"/><ellipse cx="141.3" cy="240.0" rx="113.1" ry="13" fill="#93C5FD" opacity="0.65" filter="url(#e0f)"/></g><rect x="0.75" y="0.75" width="281.1666666666667" height="238.5" rx="20" fill="none" stroke="url(#e0r)" stroke-width="1.5"/><path d="M26.0 1.5H256.6666666666667" stroke="#FFFFFF" stroke-opacity=".10"/><rect x="22.0" y="22" width="42" height="42" rx="12" fill="#FFFFFF" fill-opacity="0.07" stroke="#FFFFFF" stroke-opacity="0.16"/><g transform="translate(43.0 43.0) scale(2.8)"><path d="M0-2.6L-2.6 2 2.6 2Z" fill="none" stroke="#FFFFFF" stroke-width="0.57" stroke-opacity=".7"/><circle cx="0" cy="-2.6" r="1.25" fill="#FFFFFF"/><circle cx="-2.6" cy="2" r="1.25" fill="#FFFFFF"/><circle cx="2.6" cy="2" r="1.25" fill="#FFFFFF"/></g><text x="22" y="116" class="s" font-size="21" fill="#F3F5F8" font-weight="600" letter-spacing="-0.3">Agent systems</text><text x="22" y="142" class="s" font-size="13.5" fill="#A7B0BC">Tool execution in a real Linux</text><text x="22" y="162" class="s" font-size="13.5" fill="#A7B0BC">sandbox; model routing with</text><text x="22" y="182" class="s" font-size="13.5" fill="#A7B0BC">provider fallback.</text><text x="22" y="214" class="s" font-size="13" fill="#F3F5F8" font-weight="600">loom.ai  →</text><defs><linearGradient id="e1b" x1="0" y1="0" x2="0" y2="240" gradientUnits="userSpaceOnUse"><stop stop-color="#10151D"/><stop offset=".55" stop-color="#0B1916"/><stop offset="1" stop-color="#104428"/></linearGradient><radialGradient id="e1g" cx="0" cy="0" r="1" gradientUnits="userSpaceOnUse" gradientTransform="translate(440.0 254.4) scale(175.3 139.2)"><stop stop-color="#22C55E" stop-opacity="0.85"/><stop offset=".45" stop-color="#22C55E" stop-opacity="0.27"/><stop offset="1" stop-color="#22C55E" stop-opacity="0"/></radialGradient><linearGradient id="e1r" x1="0" y1="0" x2="0" y2="240" gradientUnits="userSpaceOnUse"><stop stop-color="#FFFFFF" stop-opacity="0.11"/><stop offset=".5" stop-color="#86EFAC" stop-opacity="0.22"/><stop offset="1" stop-color="#86EFAC" stop-opacity="0.95"/></linearGradient><clipPath id="e1k"><rect x="299.6666666666667" y="1" width="280.6666666666667" height="238" rx="19"/></clipPath><filter id="e1f" x="-20%" y="-200%" width="140%" height="500%"><feGaussianBlur stdDeviation="9"/></filter></defs><rect x="299.4166666666667" y="0.75" width="281.1666666666667" height="238.5" rx="20" fill="url(#e1b)"/><g clip-path="url(#e1k)"><rect x="298.6666666666667" y="0" width="282.6666666666667" height="240" fill="url(#e1g)"/><ellipse cx="440.0" cy="240.0" rx="113.1" ry="13" fill="#86EFAC" opacity="0.65" filter="url(#e1f)"/></g><rect x="299.4166666666667" y="0.75" width="281.1666666666667" height="238.5" rx="20" fill="none" stroke="url(#e1r)" stroke-width="1.5"/><path d="M324.6666666666667 1.5H555.3333333333334" stroke="#FFFFFF" stroke-opacity=".10"/><rect x="320.7" y="22" width="42" height="42" rx="12" fill="#FFFFFF" fill-opacity="0.07" stroke="#FFFFFF" stroke-opacity="0.16"/><g transform="translate(341.7 43.0) scale(2.8)"><path d="M-1.2-3H-3V3H-1.2M1.2-3H3V3H1.2" fill="none" stroke="#FFFFFF" stroke-width="0.57" stroke-linecap="round" stroke-linejoin="round"/></g><text x="320.667" y="116" class="s" font-size="21" fill="#F3F5F8" font-weight="600" letter-spacing="-0.3">Grounded generation</text><text x="320.667" y="142" class="s" font-size="13.5" fill="#A7B0BC">Answers that cite sources or</text><text x="320.667" y="162" class="s" font-size="13.5" fill="#A7B0BC">abstain; CV drafts checked</text><text x="320.667" y="182" class="s" font-size="13.5" fill="#A7B0BC">for invented claims.</text><text x="320.667" y="214" class="s" font-size="13" fill="#F3F5F8" font-weight="600">loom.ai · lazyhire  →</text><defs><linearGradient id="e2b" x1="0" y1="0" x2="0" y2="240" gradientUnits="userSpaceOnUse"><stop stop-color="#10151D"/><stop offset=".55" stop-color="#1A1311"/><stop offset="1" stop-color="#512B12"/></linearGradient><radialGradient id="e2g" cx="0" cy="0" r="1" gradientUnits="userSpaceOnUse" gradientTransform="translate(738.7 254.4) scale(175.3 139.2)"><stop stop-color="#F97316" stop-opacity="0.85"/><stop offset=".45" stop-color="#F97316" stop-opacity="0.27"/><stop offset="1" stop-color="#F97316" stop-opacity="0"/></radialGradient><linearGradient id="e2r" x1="0" y1="0" x2="0" y2="240" gradientUnits="userSpaceOnUse"><stop stop-color="#FFFFFF" stop-opacity="0.11"/><stop offset=".5" stop-color="#FDBA74" stop-opacity="0.22"/><stop offset="1" stop-color="#FDBA74" stop-opacity="0.95"/></linearGradient><clipPath id="e2k"><rect x="598.3333333333334" y="1" width="280.6666666666667" height="238" rx="19"/></clipPath><filter id="e2f" x="-20%" y="-200%" width="140%" height="500%"><feGaussianBlur stdDeviation="9"/></filter></defs><rect x="598.0833333333334" y="0.75" width="281.1666666666667" height="238.5" rx="20" fill="url(#e2b)"/><g clip-path="url(#e2k)"><rect x="597.3333333333334" y="0" width="282.6666666666667" height="240" fill="url(#e2g)"/><ellipse cx="738.7" cy="240.0" rx="113.1" ry="13" fill="#FDBA74" opacity="0.65" filter="url(#e2f)"/></g><rect x="598.0833333333334" y="0.75" width="281.1666666666667" height="238.5" rx="20" fill="none" stroke="url(#e2r)" stroke-width="1.5"/><path d="M623.3333333333334 1.5H854.0" stroke="#FFFFFF" stroke-opacity=".10"/><rect x="619.3" y="22" width="42" height="42" rx="12" fill="#FFFFFF" fill-opacity="0.07" stroke="#FFFFFF" stroke-opacity="0.16"/><g transform="translate(640.3 43.0) scale(2.8)"><path d="M-2.8 3V.4M0 3V-3M2.8 3V-1.2" fill="none" stroke="#FFFFFF" stroke-width="0.57" stroke-linecap="round" stroke-linejoin="round"/></g><text x="619.333" y="116" class="s" font-size="21" fill="#F3F5F8" font-weight="600" letter-spacing="-0.3">Applied ML</text><text x="619.333" y="142" class="s" font-size="13.5" fill="#A7B0BC">Cleaning, EDA and model</text><text x="619.333" y="162" class="s" font-size="13.5" fill="#A7B0BC">benchmarking, with local</text><text x="619.333" y="182" class="s" font-size="13.5" fill="#A7B0BC">fallbacks when LLMs fail.</text><text x="619.333" y="214" class="s" font-size="13" fill="#F3F5F8" font-weight="600">InForge-AI · InsightGenie  →</text><g transform="translate(0 256)"><defs><linearGradient id="pb" x1="0" y1="0" x2="0" y2="50" gradientUnits="userSpaceOnUse"><stop stop-color="#10151D"/><stop offset=".6" stop-color="#090C11"/></linearGradient><linearGradient id="pe" x1="31" y1="0" x2="849" y2="0" gradientUnits="userSpaceOnUse"><stop stop-color="#FFFFFF" stop-opacity="0"/><stop offset=".5" stop-color="#FFFFFF" stop-opacity="0.14"/><stop offset="1" stop-color="#FFFFFF" stop-opacity="0"/></linearGradient><clipPath id="pk"><rect x="1" y="1" width="878" height="48" rx="24"/></clipPath></defs><rect x=".5" y=".5" width="879" height="49" rx="25" fill="url(#pb)"/><rect x=".5" y=".5" width="879" height="49" rx="25" fill="none" stroke="#FFFFFF" stroke-opacity="0.1"/><path d="M31 1H849" stroke="url(#pe)"/></g><g transform="translate(49.0 276.0) scale(1.1)"><path d="M.8-4L-2.6.6H0L-.8 4 2.6-.6H0Z" fill="#7D8796"/></g><text x="63.03" y="286" class="s" font-size="13.5" fill="#A7B0BC">Deterministic core</text><g transform="translate(281.5 276.0) scale(1.1)"><circle r="3.4" fill="none" stroke="#7D8796" stroke-width="1.18"/><circle r="1.2" fill="#7D8796"/></g><text x="295.517" y="286" class="s" font-size="13.5" fill="#A7B0BC">Cite or abstain</text><g transform="translate(493.8 276.0) scale(1.1)"><path d="M3-1.2A3.2 3.2 0 1 0 3.2 1.4M3.4-3.6V-1.1H.9" fill="none" stroke="#7D8796" stroke-width="1.18" stroke-linecap="round" stroke-linejoin="round"/></g><text x="507.755" y="286" class="s" font-size="13.5" fill="#A7B0BC">Fail over, not out</text><g transform="translate(707.5 276.0) scale(1.1)"><path d="M-2.6-3.6H1L2.8-1.8V3.6H-2.6ZM-1.2 0H1.4M-1.2 1.8H1.4" fill="none" stroke="#7D8796" stroke-width="1.18" stroke-linecap="round" stroke-linejoin="round"/></g><text x="721.545" y="286" class="s" font-size="13.5" fill="#A7B0BC">Documented limits</text></svg>
