<svg xmlns="http://www.w3.org/2000/svg" width="400" height="656" viewBox="0 0 400 656" role="img" aria-labelledby="title desc"><title id="title">VINAYAK — AI/ML Engineer</title><desc id="desc">VINAYAK, AI/ML Engineer at AMnova Technologies, Kochi, India. AI systems that show their work: agents that run real tools, answers that cite or abstain. Agent loop: route, execute, verify, cite, trace. HackerRank Orchestrate finalist. Open to AI/ML and LLM roles.</desc><style>.s{font-family:-apple-system,BlinkMacSystemFont,'Segoe UI','Noto Sans',Helvetica,Arial,sans-serif}.m{font-family:ui-monospace,SFMono-Regular,'SF Mono',Menlo,Consolas,'Liberation Mono',monospace}.f{font-family:Georgia,'Times New Roman',Times,serif}@keyframes ping{0%{transform:scale(1);opacity:.9}70%,100%{transform:scale(2.6);opacity:0}}.ping{transform-box:fill-box;transform-origin:center;animation:ping 2.8s ease-out infinite}@keyframes tw{0%,100%{opacity:.25;transform:scale(.55)}50%{opacity:1;transform:scale(1.1)}}.tw{transform-box:fill-box;transform-origin:center;animation:tw 3.4s ease-in-out infinite}@keyframes lp{0%,24%,100%{fill-opacity:0.16}6%,12%{fill-opacity:0.48}}.lp0 rect{animation:lp 10s ease-in-out 0.0s infinite}.lp1 rect{animation:lp 10s ease-in-out 2.0s infinite}.lp2 rect{animation:lp 10s ease-in-out 4.0s infinite}.lp3 rect{animation:lp 10s ease-in-out 6.0s infinite}.lp4 rect{animation:lp 10s ease-in-out 8.0s infinite}@media(prefers-reduced-motion:reduce){*{animation:none!important}.motion{display:none}}</style><defs><linearGradient id="hb" x1="0" y1="0" x2="0" y2="656" gradientUnits="userSpaceOnUse"><stop stop-color="#10151D"/><stop offset=".6" stop-color="#090C11"/></linearGradient><linearGradient id="he" x1="26" y1="0" x2="374" y2="0" gradientUnits="userSpaceOnUse"><stop stop-color="#FFFFFF" stop-opacity="0"/><stop offset=".5" stop-color="#FFFFFF" stop-opacity="0.14"/><stop offset="1" stop-color="#FFFFFF" stop-opacity="0"/></linearGradient><clipPath id="hk"><rect x="1" y="1" width="398" height="654" rx="19"/></clipPath><radialGradient id="hg" cx="200" cy="104" r="220" gradientUnits="userSpaceOnUse"><stop stop-color="#8B5CF6" stop-opacity="0.27"/><stop offset="1" stop-color="#8B5CF6" stop-opacity="0"/></radialGradient></defs><rect x=".5" y=".5" width="399" height="655" rx="20" fill="url(#hb)"/><g clip-path="url(#hk)"><circle cx="200" cy="104" r="220" fill="url(#hg)"/></g><rect x=".5" y=".5" width="399" height="655" rx="20" fill="none" stroke="#FFFFFF" stroke-opacity="0.1"/><path d="M26 1H374" stroke="url(#he)"/><defs><linearGradient id="tg-blue" x1="0" y1="0" x2="0" y2="1"><stop stop-color="#93C5FD" stop-opacity="1"/><stop offset="1" stop-color="#93C5FD" stop-opacity="0.45"/></linearGradient><linearGradient id="tg-green" x1="0" y1="0" x2="0" y2="1"><stop stop-color="#86EFAC" stop-opacity="1"/><stop offset="1" stop-color="#86EFAC" stop-opacity="0.45"/></linearGradient><linearGradient id="tg-orange" x1="0" y1="0" x2="0" y2="1"><stop stop-color="#FDBA74" stop-opacity="1"/><stop offset="1" stop-color="#FDBA74" stop-opacity="0.45"/></linearGradient><linearGradient id="tg-violet" x1="0" y1="0" x2="0" y2="1"><stop stop-color="#C4B5FD" stop-opacity="1"/><stop offset="1" stop-color="#C4B5FD" stop-opacity="0.45"/></linearGradient><linearGradient id="tg-cyan" x1="0" y1="0" x2="0" y2="1"><stop stop-color="#67E8F9" stop-opacity="1"/><stop offset="1" stop-color="#67E8F9" stop-opacity="0.45"/></linearGradient><linearGradient id="tg-yellow" x1="0" y1="0" x2="0" y2="1"><stop stop-color="#FDE047" stop-opacity="1"/><stop offset="1" stop-color="#FDE047" stop-opacity="0.45"/></linearGradient><linearGradient id="tg-pink" x1="0" y1="0" x2="0" y2="1"><stop stop-color="#F9A8D4" stop-opacity="1"/><stop offset="1" stop-color="#F9A8D4" stop-opacity="0.45"/></linearGradient><linearGradient id="tg-gray" x1="0" y1="0" x2="0" y2="1"><stop stop-color="#CBD5E1" stop-opacity="1"/><stop offset="1" stop-color="#CBD5E1" stop-opacity="0.45"/></linearGradient></defs><defs><linearGradient id="ng" x1="0" y1="254" x2="0" y2="286" gradientUnits="userSpaceOnUse"><stop stop-color="#F3F5F8"/><stop offset="1" stop-color="#A9B3C1"/></linearGradient><linearGradient id="sheen" x1="0" y1="0" x2="114" y2="0" gradientUnits="userSpaceOnUse"><stop stop-color="#93C5FD" stop-opacity="0"/><stop offset=".5" stop-color="#93C5FD" stop-opacity=".85"/><stop offset="1" stop-color="#93C5FD" stop-opacity="0"/><animateTransform attributeName="gradientTransform" type="translate" dur="12s" repeatCount="indefinite" values="-108 0;-108 0;264 0;264 0" keyTimes="0;.6;.8;1"/></linearGradient></defs><defs><path id="px" d="M-1.02 -2.04h2.04v1.02h1.02v2.04h-1.02v1.02h-2.04v-1.02h-1.02v-2.04h1.02z"/></defs><g clip-path="url(#hk)"><g fill="#8B5CF6" opacity=".45"><circle cx="116" cy="122" r="0.66"/><circle cx="122" cy="128" r="0.66"/><circle cx="128" cy="134" r="0.66"/><circle cx="134" cy="140" r="0.66"/><circle cx="140" cy="140" r="0.66"/><circle cx="146" cy="146" r="0.66"/><circle cx="152" cy="146" r="0.66"/><circle cx="158" cy="152" r="0.66"/><circle cx="164" cy="74" r="0.66"/><circle cx="164" cy="80" r="0.66"/><circle cx="164" cy="86" r="0.66"/><circle cx="164" cy="152" r="0.66"/><circle cx="170" cy="68" r="0.66"/><circle cx="170" cy="74" r="0.66"/><circle cx="170" cy="80" r="0.66"/><circle cx="170" cy="86" r="0.66"/><circle cx="170" cy="152" r="0.66"/><circle cx="170" cy="158" r="0.66"/><circle cx="176" cy="74" r="0.66"/><circle cx="176" cy="80" r="0.66"/><circle cx="176" cy="86" r="0.66"/><circle cx="176" cy="92" r="0.66"/><circle cx="176" cy="158" r="0.66"/><circle cx="182" cy="80" r="0.66"/><circle cx="182" cy="86" r="0.66"/><circle cx="182" cy="92" r="0.66"/><circle cx="182" cy="98" r="0.66"/><circle cx="182" cy="158" r="0.66"/><circle cx="188" cy="80" r="0.66"/><circle cx="188" cy="86" r="0.66"/><circle cx="188" cy="92" r="0.66"/><circle cx="188" cy="98" r="0.66"/><circle cx="188" cy="158" r="0.66"/><circle cx="194" cy="86" r="0.66"/><circle cx="194" cy="92" r="0.66"/><circle cx="194" cy="98" r="0.66"/><circle cx="194" cy="158" r="0.66"/><circle cx="194" cy="164" r="0.66"/><circle cx="200" cy="92" r="0.66"/><circle cx="200" cy="98" r="0.66"/><circle cx="200" cy="158" r="0.66"/><circle cx="200" cy="164" r="0.66"/><circle cx="206" cy="98" r="0.66"/><circle cx="206" cy="104" r="0.66"/><circle cx="206" cy="158" r="0.66"/><circle cx="206" cy="164" r="0.66"/><circle cx="212" cy="104" r="0.66"/><circle cx="212" cy="158" r="0.66"/><circle cx="212" cy="164" r="0.66"/><circle cx="218" cy="104" r="0.66"/><circle cx="218" cy="158" r="0.66"/><circle cx="218" cy="164" r="0.66"/><circle cx="224" cy="158" r="0.66"/><circle cx="224" cy="164" r="0.66"/><circle cx="230" cy="152" r="0.66"/><circle cx="230" cy="158" r="0.66"/><circle cx="230" cy="164" r="0.66"/><circle cx="236" cy="152" r="0.66"/><circle cx="236" cy="158" r="0.66"/><circle cx="236" cy="164" r="0.66"/><circle cx="242" cy="152" r="0.66"/><circle cx="242" cy="158" r="0.66"/><circle cx="242" cy="164" r="0.66"/><circle cx="248" cy="152" r="0.66"/><circle cx="248" cy="158" r="0.66"/><circle cx="248" cy="164" r="0.66"/><circle cx="254" cy="146" r="0.66"/><circle cx="254" cy="152" r="0.66"/><circle cx="254" cy="158" r="0.66"/><circle cx="260" cy="146" r="0.66"/><circle cx="260" cy="152" r="0.66"/><circle cx="260" cy="158" r="0.66"/><circle cx="266" cy="140" r="0.66"/><circle cx="266" cy="146" r="0.66"/><circle cx="266" cy="152" r="0.66"/><circle cx="266" cy="158" r="0.66"/><circle cx="272" cy="134" r="0.66"/><circle cx="272" cy="140" r="0.66"/><circle cx="272" cy="146" r="0.66"/><circle cx="272" cy="152" r="0.66"/><circle cx="278" cy="128" r="0.66"/><circle cx="278" cy="134" r="0.66"/><circle cx="278" cy="140" r="0.66"/><circle cx="278" cy="146" r="0.66"/><circle cx="284" cy="86" r="0.66"/><circle cx="284" cy="116" r="0.66"/><circle cx="284" cy="122" r="0.66"/><circle cx="284" cy="128" r="0.66"/><circle cx="284" cy="134" r="0.66"/><circle cx="284" cy="140" r="0.66"/><circle cx="290" cy="98" r="0.66"/><circle cx="290" cy="104" r="0.66"/><circle cx="290" cy="110" r="0.66"/><circle cx="290" cy="116" r="0.66"/><circle cx="290" cy="122" r="0.66"/><circle cx="290" cy="128" r="0.66"/><circle cx="290" cy="134" r="0.66"/></g><g fill="#8B5CF6"><use href="#px" x="110" y="104" opacity="0.57"/><use href="#px" x="110" y="110" opacity="0.47"/><use href="#px" x="116" y="116" opacity="0.55"/><use href="#px" x="122" y="122" opacity="0.56"/><use href="#px" x="128" y="128" opacity="0.52"/><use href="#px" x="134" y="128" opacity="0.54"/><use href="#px" x="134" y="134" opacity="0.47"/><use href="#px" x="140" y="134" opacity="0.53"/><use href="#px" x="146" y="140" opacity="0.49"/><use href="#px" x="152" y="62" opacity="0.56"/><use href="#px" x="152" y="68" opacity="0.53"/><use href="#px" x="152" y="74" opacity="0.53"/><use href="#px" x="152" y="140" opacity="0.54"/><use href="#px" x="158" y="56" opacity="0.56"/><use href="#px" x="158" y="62" opacity="0.51"/><use href="#px" x="158" y="68" opacity="0.45"/><use href="#px" x="158" y="74" opacity="0.40"/><use href="#px" x="158" y="80" opacity="0.47"/><use href="#px" x="158" y="140" opacity="0.56"/><use href="#px" x="158" y="146" opacity="0.42"/><use href="#px" x="164" y="56" opacity="0.53"/><use href="#px" x="164" y="62" opacity="0.48"/><use href="#px" x="164" y="68" opacity="0.41"/><use href="#px" x="164" y="146" opacity="0.47"/><use href="#px" x="170" y="50" opacity="0.57"/><use href="#px" x="170" y="56" opacity="0.52"/><use href="#px" x="170" y="62" opacity="0.47"/><use href="#px" x="170" y="92" opacity="0.49"/><use href="#px" x="170" y="146" opacity="0.50"/><use href="#px" x="176" y="44" opacity="0.58"/><use href="#px" x="176" y="50" opacity="0.57"/><use href="#px" x="176" y="56" opacity="0.53"/><use href="#px" x="176" y="62" opacity="0.47"/><use href="#px" x="176" y="68" opacity="0.40"/><use href="#px" x="176" y="146" opacity="0.54"/><use href="#px" x="176" y="152" opacity="0.40"/><use href="#px" x="182" y="44" opacity="0.58"/><use href="#px" x="182" y="56" opacity="0.53"/><use href="#px" x="182" y="62" opacity="0.48"/><use href="#px" x="182" y="68" opacity="0.43"/><use href="#px" x="182" y="74" opacity="0.39"/><use href="#px" x="182" y="146" opacity="0.52"/><use href="#px" x="182" y="152" opacity="0.42"/><use href="#px" x="188" y="44" opacity="0.57"/><use href="#px" x="188" y="50" opacity="0.58"/><use href="#px" x="188" y="56" opacity="0.54"/><use href="#px" x="188" y="62" opacity="0.50"/><use href="#px" x="188" y="68" opacity="0.45"/><use href="#px" x="188" y="74" opacity="0.43"/><use href="#px" x="188" y="146" opacity="0.53"/><use href="#px" x="188" y="152" opacity="0.43"/><use href="#px" x="194" y="44" opacity="0.56"/><use href="#px" x="194" y="50" opacity="0.58"/><use href="#px" x="194" y="56" opacity="0.56"/><use href="#px" x="194" y="62" opacity="0.53"/><use href="#px" x="194" y="68" opacity="0.48"/><use href="#px" x="194" y="74" opacity="0.46"/><use href="#px" x="194" y="80" opacity="0.41"/><use href="#px" x="194" y="146" opacity="0.55"/><use href="#px" x="194" y="152" opacity="0.45"/><use href="#px" x="200" y="44" opacity="0.55"/><use href="#px" x="200" y="62" opacity="0.56"/><use href="#px" x="200" y="68" opacity="0.51"/><use href="#px" x="200" y="74" opacity="0.50"/><use href="#px" x="200" y="80" opacity="0.47"/><use href="#px" x="200" y="86" opacity="0.42"/><use href="#px" x="200" y="146" opacity="0.54"/><use href="#px" x="200" y="152" opacity="0.43"/><use href="#px" x="206" y="44" opacity="0.53"/><use href="#px" x="206" y="68" opacity="0.58"/><use href="#px" x="206" y="74" opacity="0.53"/><use href="#px" x="206" y="80" opacity="0.50"/><use href="#px" x="206" y="86" opacity="0.49"/><use href="#px" x="206" y="92" opacity="0.41"/><use href="#px" x="206" y="146" opacity="0.55"/><use href="#px" x="206" y="152" opacity="0.45"/><use href="#px" x="212" y="86" opacity="0.52"/><use href="#px" x="212" y="92" opacity="0.49"/><use href="#px" x="212" y="98" opacity="0.39"/><use href="#px" x="212" y="146" opacity="0.52"/><use href="#px" x="212" y="152" opacity="0.42"/><use href="#px" x="218" y="50" opacity="0.57"/><use href="#px" x="218" y="92" opacity="0.54"/><use href="#px" x="218" y="98" opacity="0.47"/><use href="#px" x="218" y="146" opacity="0.53"/><use href="#px" x="218" y="152" opacity="0.42"/><use href="#px" x="224" y="50" opacity="0.55"/><use href="#px" x="224" y="98" opacity="0.54"/><use href="#px" x="224" y="104" opacity="0.48"/><use href="#px" x="224" y="140" opacity="0.58"/><use href="#px" x="224" y="146" opacity="0.50"/><use href="#px" x="224" y="152" opacity="0.40"/><use href="#px" x="230" y="50" opacity="0.49"/><use href="#px" x="230" y="104" opacity="0.55"/><use href="#px" x="230" y="140" opacity="0.55"/><use href="#px" x="230" y="146" opacity="0.47"/><use href="#px" x="236" y="56" opacity="0.58"/><use href="#px" x="236" y="134" opacity="0.56"/><use href="#px" x="236" y="140" opacity="0.54"/><use href="#px" x="236" y="146" opacity="0.45"/><use href="#px" x="242" y="56" opacity="0.53"/><use href="#px" x="242" y="134" opacity="0.53"/><use href="#px" x="242" y="140" opacity="0.51"/><use href="#px" x="242" y="146" opacity="0.42"/><use href="#px" x="248" y="128" opacity="0.58"/><use href="#px" x="248" y="134" opacity="0.51"/><use href="#px" x="248" y="140" opacity="0.48"/><use href="#px" x="248" y="146" opacity="0.39"/><use href="#px" x="254" y="62" opacity="0.53"/><use href="#px" x="254" y="128" opacity="0.53"/><use href="#px" x="254" y="134" opacity="0.48"/><use href="#px" x="254" y="140" opacity="0.45"/><use href="#px" x="260" y="68" opacity="0.56"/><use href="#px" x="260" y="122" opacity="0.57"/><use href="#px" x="260" y="128" opacity="0.51"/><use href="#px" x="260" y="134" opacity="0.48"/><use href="#px" x="260" y="140" opacity="0.40"/><use href="#px" x="266" y="68" opacity="0.40"/><use href="#px" x="266" y="74" opacity="0.56"/><use href="#px" x="266" y="122" opacity="0.53"/><use href="#px" x="266" y="128" opacity="0.45"/><use href="#px" x="266" y="134" opacity="0.43"/><use href="#px" x="272" y="74" opacity="0.46"/><use href="#px" x="272" y="80" opacity="0.55"/><use href="#px" x="272" y="110" opacity="0.58"/><use href="#px" x="272" y="116" opacity="0.52"/><use href="#px" x="272" y="122" opacity="0.47"/><use href="#px" x="272" y="128" opacity="0.40"/><use href="#px" x="278" y="80" opacity="0.43"/><use href="#px" x="278" y="86" opacity="0.53"/><use href="#px" x="278" y="92" opacity="0.54"/><use href="#px" x="278" y="98" opacity="0.56"/><use href="#px" x="278" y="104" opacity="0.55"/><use href="#px" x="278" y="110" opacity="0.51"/><use href="#px" x="278" y="116" opacity="0.47"/><use href="#px" x="278" y="122" opacity="0.42"/><use href="#px" x="284" y="92" opacity="0.45"/><use href="#px" x="284" y="98" opacity="0.46"/><use href="#px" x="284" y="104" opacity="0.45"/><use href="#px" x="284" y="110" opacity="0.44"/></g><g fill="#93C5FD"><use href="#px" x="110" y="74" opacity="0.66"/><use href="#px" x="110" y="80" opacity="0.69"/><use href="#px" x="110" y="86" opacity="0.69"/><use href="#px" x="110" y="92" opacity="0.68"/><use href="#px" x="110" y="98" opacity="0.63"/><use href="#px" x="116" y="68" opacity="0.71"/><use href="#px" x="116" y="74" opacity="0.75"/><use href="#px" x="116" y="80" opacity="0.77"/><use href="#px" x="116" y="86" opacity="0.76"/><use href="#px" x="116" y="92" opacity="0.76"/><use href="#px" x="116" y="98" opacity="0.72"/><use href="#px" x="116" y="104" opacity="0.68"/><use href="#px" x="116" y="110" opacity="0.65"/><use href="#px" x="122" y="56" opacity="0.63"/><use href="#px" x="122" y="62" opacity="0.71"/><use href="#px" x="122" y="68" opacity="0.75"/><use href="#px" x="122" y="74" opacity="0.78"/><use href="#px" x="122" y="80" opacity="0.80"/><use href="#px" x="122" y="92" opacity="0.81"/><use href="#px" x="122" y="98" opacity="0.80"/><use href="#px" x="122" y="104" opacity="0.76"/><use href="#px" x="122" y="110" opacity="0.68"/><use href="#px" x="122" y="116" opacity="0.65"/><use href="#px" x="128" y="56" opacity="0.69"/><use href="#px" x="128" y="62" opacity="0.72"/><use href="#px" x="128" y="68" opacity="0.75"/><use href="#px" x="128" y="74" opacity="0.78"/><use href="#px" x="128" y="80" opacity="0.81"/><use href="#px" x="128" y="110" opacity="0.77"/><use href="#px" x="128" y="116" opacity="0.71"/><use href="#px" x="128" y="122" opacity="0.62"/><use href="#px" x="134" y="50" opacity="0.65"/><use href="#px" x="134" y="56" opacity="0.68"/><use href="#px" x="134" y="62" opacity="0.70"/><use href="#px" x="134" y="68" opacity="0.73"/><use href="#px" x="134" y="74" opacity="0.77"/><use href="#px" x="134" y="80" opacity="0.77"/><use href="#px" x="134" y="116" opacity="0.78"/><use href="#px" x="134" y="122" opacity="0.68"/><use href="#px" x="140" y="50" opacity="0.65"/><use href="#px" x="140" y="56" opacity="0.66"/><use href="#px" x="140" y="62" opacity="0.65"/><use href="#px" x="140" y="68" opacity="0.69"/><use href="#px" x="140" y="74" opacity="0.72"/><use href="#px" x="140" y="80" opacity="0.76"/><use href="#px" x="140" y="86" opacity="0.79"/><use href="#px" x="140" y="122" opacity="0.74"/><use href="#px" x="140" y="128" opacity="0.64"/><use href="#px" x="146" y="50" opacity="0.64"/><use href="#px" x="146" y="56" opacity="0.63"/><use href="#px" x="146" y="62" opacity="0.61"/><use href="#px" x="146" y="68" opacity="0.61"/><use href="#px" x="146" y="74" opacity="0.65"/><use href="#px" x="146" y="80" opacity="0.69"/><use href="#px" x="146" y="86" opacity="0.77"/><use href="#px" x="146" y="92" opacity="0.80"/><use href="#px" x="146" y="122" opacity="0.73"/><use href="#px" x="146" y="128" opacity="0.69"/><use href="#px" x="152" y="44" opacity="0.60"/><use href="#px" x="152" y="50" opacity="0.61"/><use href="#px" x="152" y="56" opacity="0.60"/><use href="#px" x="152" y="80" opacity="0.60"/><use href="#px" x="152" y="86" opacity="0.70"/><use href="#px" x="152" y="92" opacity="0.76"/><use href="#px" x="152" y="128" opacity="0.77"/><use href="#px" x="152" y="134" opacity="0.61"/><use href="#px" x="158" y="44" opacity="0.60"/><use href="#px" x="158" y="50" opacity="0.60"/><use href="#px" x="158" y="86" opacity="0.61"/><use href="#px" x="158" y="92" opacity="0.73"/><use href="#px" x="158" y="98" opacity="0.81"/><use href="#px" x="158" y="128" opacity="0.75"/><use href="#px" x="158" y="134" opacity="0.67"/><use href="#px" x="164" y="44" opacity="0.59"/><use href="#px" x="164" y="50" opacity="0.58"/><use href="#px" x="164" y="92" opacity="0.65"/><use href="#px" x="164" y="134" opacity="0.68"/><use href="#px" x="164" y="140" opacity="0.58"/><use href="#px" x="170" y="44" opacity="0.59"/><use href="#px" x="170" y="98" opacity="0.72"/><use href="#px" x="170" y="104" opacity="0.81"/><use href="#px" x="170" y="134" opacity="0.71"/><use href="#px" x="170" y="140" opacity="0.63"/><use href="#px" x="176" y="98" opacity="0.64"/><use href="#px" x="176" y="104" opacity="0.76"/><use href="#px" x="176" y="134" opacity="0.73"/><use href="#px" x="176" y="140" opacity="0.61"/><use href="#px" x="182" y="104" opacity="0.72"/><use href="#px" x="182" y="110" opacity="0.79"/><use href="#px" x="182" y="128" opacity="0.81"/><use href="#px" x="182" y="134" opacity="0.75"/><use href="#px" x="182" y="140" opacity="0.62"/><use href="#px" x="188" y="104" opacity="0.68"/><use href="#px" x="188" y="110" opacity="0.77"/><use href="#px" x="188" y="134" opacity="0.71"/><use href="#px" x="188" y="140" opacity="0.63"/><use href="#px" x="194" y="110" opacity="0.75"/><use href="#px" x="194" y="116" opacity="0.78"/><use href="#px" x="194" y="128" opacity="0.80"/><use href="#px" x="194" y="140" opacity="0.65"/><use href="#px" x="200" y="50" opacity="0.59"/><use href="#px" x="200" y="56" opacity="0.59"/><use href="#px" x="200" y="110" opacity="0.72"/><use href="#px" x="200" y="116" opacity="0.78"/><use href="#px" x="200" y="128" opacity="0.77"/><use href="#px" x="200" y="134" opacity="0.67"/><use href="#px" x="200" y="140" opacity="0.63"/><use href="#px" x="206" y="50" opacity="0.59"/><use href="#px" x="206" y="56" opacity="0.60"/><use href="#px" x="206" y="62" opacity="0.61"/><use href="#px" x="206" y="110" opacity="0.71"/><use href="#px" x="206" y="116" opacity="0.75"/><use href="#px" x="206" y="122" opacity="0.77"/><use href="#px" x="206" y="128" opacity="0.76"/><use href="#px" x="206" y="134" opacity="0.66"/><use href="#px" x="206" y="140" opacity="0.63"/><use href="#px" x="212" y="50" opacity="0.58"/><use href="#px" x="212" y="56" opacity="0.62"/><use href="#px" x="212" y="74" opacity="0.64"/><use href="#px" x="212" y="80" opacity="0.60"/><use href="#px" x="212" y="110" opacity="0.69"/><use href="#px" x="212" y="116" opacity="0.74"/><use href="#px" x="212" y="122" opacity="0.75"/><use href="#px" x="212" y="128" opacity="0.71"/><use href="#px" x="212" y="134" opacity="0.64"/><use href="#px" x="212" y="140" opacity="0.60"/><use href="#px" x="218" y="56" opacity="0.62"/><use href="#px" x="218" y="62" opacity="0.71"/><use href="#px" x="218" y="74" opacity="0.75"/><use href="#px" x="218" y="80" opacity="0.71"/><use href="#px" x="218" y="86" opacity="0.61"/><use href="#px" x="218" y="110" opacity="0.68"/><use href="#px" x="218" y="116" opacity="0.73"/><use href="#px" x="218" y="122" opacity="0.73"/><use href="#px" x="218" y="128" opacity="0.70"/><use href="#px" x="218" y="134" opacity="0.64"/><use href="#px" x="218" y="140" opacity="0.61"/><use href="#px" x="224" y="56" opacity="0.61"/><use href="#px" x="224" y="62" opacity="0.71"/><use href="#px" x="224" y="80" opacity="0.74"/><use href="#px" x="224" y="86" opacity="0.64"/><use href="#px" x="224" y="92" opacity="0.59"/><use href="#px" x="224" y="110" opacity="0.67"/><use href="#px" x="224" y="116" opacity="0.72"/><use href="#px" x="224" y="122" opacity="0.71"/><use href="#px" x="224" y="128" opacity="0.67"/><use href="#px" x="224" y="134" opacity="0.61"/><use href="#px" x="230" y="56" opacity="0.61"/><use href="#px" x="230" y="62" opacity="0.67"/><use href="#px" x="230" y="86" opacity="0.68"/><use href="#px" x="230" y="92" opacity="0.63"/><use href="#px" x="230" y="98" opacity="0.61"/><use href="#px" x="230" y="110" opacity="0.68"/><use href="#px" x="230" y="116" opacity="0.71"/><use href="#px" x="230" y="122" opacity="0.69"/><use href="#px" x="230" y="128" opacity="0.64"/><use href="#px" x="236" y="62" opacity="0.65"/><use href="#px" x="236" y="68" opacity="0.72"/><use href="#px" x="236" y="86" opacity="0.73"/><use href="#px" x="236" y="92" opacity="0.68"/><use href="#px" x="236" y="98" opacity="0.65"/><use href="#px" x="236" y="104" opacity="0.60"/><use href="#px" x="236" y="110" opacity="0.70"/><use href="#px" x="236" y="116" opacity="0.70"/><use href="#px" x="236" y="122" opacity="0.67"/><use href="#px" x="236" y="128" opacity="0.62"/><use href="#px" x="242" y="62" opacity="0.62"/><use href="#px" x="242" y="68" opacity="0.69"/><use href="#px" x="242" y="74" opacity="0.76"/><use href="#px" x="242" y="80" opacity="0.78"/><use href="#px" x="242" y="86" opacity="0.74"/><use href="#px" x="242" y="92" opacity="0.71"/><use href="#px" x="242" y="98" opacity="0.69"/><use href="#px" x="242" y="104" opacity="0.70"/><use href="#px" x="242" y="110" opacity="0.70"/><use href="#px" x="242" y="116" opacity="0.69"/><use href="#px" x="242" y="122" opacity="0.65"/><use href="#px" x="242" y="128" opacity="0.60"/><use href="#px" x="248" y="68" opacity="0.65"/><use href="#px" x="248" y="74" opacity="0.70"/><use href="#px" x="248" y="86" opacity="0.74"/><use href="#px" x="248" y="92" opacity="0.73"/><use href="#px" x="248" y="98" opacity="0.72"/><use href="#px" x="248" y="104" opacity="0.71"/><use href="#px" x="248" y="110" opacity="0.69"/><use href="#px" x="248" y="116" opacity="0.67"/><use href="#px" x="248" y="122" opacity="0.63"/><use href="#px" x="254" y="68" opacity="0.62"/><use href="#px" x="254" y="74" opacity="0.65"/><use href="#px" x="254" y="80" opacity="0.70"/><use href="#px" x="254" y="86" opacity="0.72"/><use href="#px" x="254" y="92" opacity="0.73"/><use href="#px" x="254" y="98" opacity="0.72"/><use href="#px" x="254" y="104" opacity="0.71"/><use href="#px" x="254" y="110" opacity="0.68"/><use href="#px" x="254" y="116" opacity="0.65"/><use href="#px" x="254" y="122" opacity="0.59"/><use href="#px" x="260" y="74" opacity="0.61"/><use href="#px" x="260" y="80" opacity="0.68"/><use href="#px" x="260" y="86" opacity="0.70"/><use href="#px" x="260" y="92" opacity="0.71"/><use href="#px" x="260" y="98" opacity="0.69"/><use href="#px" x="260" y="104" opacity="0.69"/><use href="#px" x="260" y="110" opacity="0.66"/><use href="#px" x="260" y="116" opacity="0.62"/><use href="#px" x="266" y="80" opacity="0.64"/><use href="#px" x="266" y="86" opacity="0.67"/><use href="#px" x="266" y="92" opacity="0.66"/><use href="#px" x="266" y="98" opacity="0.66"/><use href="#px" x="266" y="104" opacity="0.66"/><use href="#px" x="266" y="110" opacity="0.61"/><use href="#px" x="266" y="116" opacity="0.59"/><use href="#px" x="272" y="86" opacity="0.61"/><use href="#px" x="272" y="92" opacity="0.65"/><use href="#px" x="272" y="98" opacity="0.64"/><use href="#px" x="272" y="104" opacity="0.61"/></g><g fill="#FFFFFF"><use href="#px" x="122" y="86" opacity="0.82"/><use href="#px" x="128" y="86" opacity="0.84"/><use href="#px" x="128" y="92" opacity="0.89"/><use href="#px" x="128" y="98" opacity="0.88"/><use href="#px" x="128" y="104" opacity="0.83"/><use href="#px" x="134" y="86" opacity="0.83"/><use href="#px" x="134" y="92" opacity="0.91"/><use href="#px" x="134" y="98" opacity="0.96"/><use href="#px" x="134" y="104" opacity="0.96"/><use href="#px" x="134" y="110" opacity="0.82"/><use href="#px" x="140" y="92" opacity="0.86"/><use href="#px" x="140" y="98" opacity="1.00"/><use href="#px" x="140" y="104" opacity="1.00"/><use href="#px" x="140" y="110" opacity="1.00"/><use href="#px" x="140" y="116" opacity="0.84"/><use href="#px" x="146" y="98" opacity="0.94"/><use href="#px" x="146" y="104" opacity="1.00"/><use href="#px" x="146" y="110" opacity="1.00"/><use href="#px" x="146" y="116" opacity="0.93"/><use href="#px" x="152" y="98" opacity="0.84"/><use href="#px" x="152" y="104" opacity="1.00"/><use href="#px" x="152" y="110" opacity="1.00"/><use href="#px" x="152" y="116" opacity="1.00"/><use href="#px" x="152" y="122" opacity="0.93"/><use href="#px" x="158" y="104" opacity="0.90"/><use href="#px" x="158" y="110" opacity="1.00"/><use href="#px" x="158" y="116" opacity="1.00"/><use href="#px" x="158" y="122" opacity="0.91"/><use href="#px" x="164" y="104" opacity="0.90"/><use href="#px" x="164" y="110" opacity="1.00"/><use href="#px" x="164" y="116" opacity="1.00"/><use href="#px" x="164" y="122" opacity="0.99"/><use href="#px" x="164" y="128" opacity="0.88"/><use href="#px" x="170" y="110" opacity="0.96"/><use href="#px" x="170" y="116" opacity="1.00"/><use href="#px" x="170" y="122" opacity="1.00"/><use href="#px" x="170" y="128" opacity="0.84"/><use href="#px" x="176" y="110" opacity="0.88"/><use href="#px" x="176" y="116" opacity="1.00"/><use href="#px" x="176" y="122" opacity="1.00"/><use href="#px" x="182" y="116" opacity="0.97"/><use href="#px" x="182" y="122" opacity="0.96"/><use href="#px" x="188" y="116" opacity="0.88"/><use href="#px" x="188" y="122" opacity="0.93"/><use href="#px" x="188" y="128" opacity="0.82"/><use href="#px" x="194" y="122" opacity="0.86"/><use href="#px" x="200" y="122" opacity="0.82"/><use href="#px" x="218" y="68" opacity="0.82"/><use href="#px" x="224" y="68" opacity="0.87"/><use href="#px" x="224" y="74" opacity="0.87"/><use href="#px" x="230" y="68" opacity="0.83"/><use href="#px" x="230" y="74" opacity="0.92"/><use href="#px" x="230" y="80" opacity="0.85"/><use href="#px" x="236" y="74" opacity="0.86"/><use href="#px" x="236" y="80" opacity="0.82"/></g><g fill="#FDBA74"><use href="#px" x="146" y="134" opacity="0.59"/><use href="#px" x="164" y="98" opacity="0.76"/><use href="#px" x="176" y="128" opacity="0.80"/><use href="#px" x="182" y="50" opacity="0.57"/><use href="#px" x="194" y="104" opacity="0.61"/><use href="#px" x="194" y="134" opacity="0.69"/><use href="#px" x="212" y="62" opacity="0.69"/><use href="#px" x="212" y="68" opacity="0.73"/><use href="#px" x="230" y="134" opacity="0.58"/><use href="#px" x="248" y="62" opacity="0.59"/><use href="#px" x="248" y="80" opacity="0.74"/></g><g fill="#93C5FD"><use href="#px" x="308" y="146" opacity="0.21"/><use href="#px" x="278" y="176" opacity="0.53"/><use href="#px" x="110" y="146" opacity="0.55"/><use href="#px" x="146" y="164" opacity="0.28"/><use href="#px" x="308" y="116" opacity="0.40"/><use href="#px" x="104" y="128" opacity="0.54"/><use href="#px" x="284" y="146" opacity="0.17"/><use href="#px" x="308" y="74" opacity="0.25"/><use href="#px" x="278" y="188" opacity="0.19"/><use href="#px" x="314" y="140" opacity="0.32"/><use href="#px" x="320" y="158" opacity="0.18"/><use href="#px" x="272" y="62" opacity="0.52"/><use href="#px" x="188" y="182" opacity="0.36"/><use href="#px" x="230" y="170" opacity="0.27"/><use href="#px" x="146" y="152" opacity="0.25"/><use href="#px" x="320" y="122" opacity="0.34"/><use href="#px" x="290" y="86" opacity="0.48"/><use href="#px" x="98" y="140" opacity="0.35"/><use href="#px" x="128" y="176" opacity="0.31"/><use href="#px" x="146" y="176" opacity="0.20"/><use href="#px" x="308" y="152" opacity="0.50"/><use href="#px" x="104" y="134" opacity="0.33"/><use href="#px" x="188" y="188" opacity="0.25"/><use href="#px" x="302" y="92" opacity="0.29"/><use href="#px" x="308" y="122" opacity="0.23"/><use href="#px" x="194" y="170" opacity="0.16"/><use href="#px" x="164" y="164" opacity="0.38"/><use href="#px" x="80" y="104" opacity="0.50"/><use href="#px" x="116" y="170" opacity="0.54"/><use href="#px" x="272" y="170" opacity="0.48"/><use href="#px" x="290" y="62" opacity="0.44"/><use href="#px" x="266" y="38" opacity="0.48"/><use href="#px" x="86" y="74" opacity="0.24"/><use href="#px" x="296" y="140" opacity="0.29"/><use href="#px" x="302" y="176" opacity="0.40"/><use href="#px" x="326" y="104" opacity="0.36"/><use href="#px" x="194" y="38" opacity="0.34"/><use href="#px" x="152" y="32" opacity="0.40"/><use href="#px" x="140" y="44" opacity="0.42"/><use href="#px" x="170" y="188" opacity="0.20"/></g><g class="tw" style="animation-delay:0.06s"><g transform="translate(230.0 68.0) scale(1.26)"><path d="M0-4Q.5-.5 4 0Q.5.5 0 4Q-.5.5-4 0Q-.5-.5 0-4Z" fill="#FFFFFF"/></g></g><g class="tw" style="animation-delay:1.56s"><g transform="translate(146.0 80.0) scale(1.26)"><path d="M0-4Q.5-.5 4 0Q.5.5 0 4Q-.5.5-4 0Q-.5-.5 0-4Z" fill="#FFFFFF"/></g></g><g class="tw" style="animation-delay:2.79s"><g transform="translate(164.0 122.0) scale(1.26)"><path d="M0-4Q.5-.5 4 0Q.5.5 0 4Q-.5.5-4 0Q-.5-.5 0-4Z" fill="#FFFFFF"/></g></g><g class="tw" style="animation-delay:3.29s"><g transform="translate(128.0 74.0) scale(1.26)"><path d="M0-4Q.5-.5 4 0Q.5.5 0 4Q-.5.5-4 0Q-.5-.5 0-4Z" fill="#FFFFFF"/></g></g><g class="tw" style="animation-delay:1.53s"><g transform="translate(212.0 68.0) scale(1.26)"><path d="M0-4Q.5-.5 4 0Q.5.5 0 4Q-.5.5-4 0Q-.5-.5 0-4Z" fill="#FFFFFF"/></g></g></g><rect x="24.0" y="206.0" width="199.4" height="28" rx="14.0" fill="#22C55E" fill-opacity="0.16" stroke="url(#tg-green)"/><circle cx="38.0" cy="220.0" r="9.0" fill="#86EFAC"/><g transform="translate(38.0 220.0) scale(1.73077)"><path d="M0-2.4A2.4 2.4 0 1 1 0 2.4A2.4 2.4 0 1 1 0-2.4Z" fill="#090C11"/></g><text x="53" y="224.5" class="s" font-size="12.5" fill="#BBF7D0" font-weight="500">Open to AI/ML &amp; LLM roles</text><circle class="ping motion" cx="38.0" cy="220.0" r="9.0" fill="none" stroke="#86EFAC"/><text x="24" y="286" class="s" font-size="44" fill="url(#ng)" font-weight="600" letter-spacing="1.5">VINAYAK</text><text x="24" y="286" class="s motion" font-size="44" fill="url(#sheen)" font-weight="600" letter-spacing="1.5">VINAYAK</text><text x="24" y="320" class="s" font-size="17" fill="#BFDBFE" font-weight="500">AI/ML Engineer</text><text x="24" y="344" class="s" font-size="15" fill="#A7B0BC">AMnova Technologies · Kochi, India</text><text x="24" y="398" class="s" font-size="31" fill="#F3F5F8" font-weight="500" letter-spacing="-.5">AI systems that</text><text x="24" y="434" class="s" font-size="31" fill="#F3F5F8" font-weight="500" letter-spacing="-.5"><tspan class="f" font-style="italic" font-weight="400" letter-spacing="0">show</tspan> their work.</text><text x="24" y="468" class="s" font-size="15" fill="#A7B0BC">Agents that run real tools.</text><text x="24" y="490" class="s" font-size="15" fill="#A7B0BC">Answers that cite or abstain.</text><g class="lp0"><rect x="24.0" y="506.0" width="69.1" height="28" rx="14.0" fill="#06B6D4" fill-opacity="0.16" stroke="url(#tg-cyan)"/><circle cx="38.0" cy="520.0" r="9.0" fill="#67E8F9"/><g transform="translate(38.0 520.0) scale(1.73077)"><path d="M-3 0H3M.5-2.5L3 0 .5 2.5" fill="none" stroke="#090C11" stroke-width="0.87" stroke-linecap="round" stroke-linejoin="round"/></g><text x="53" y="524.5" class="s" font-size="12.5" fill="#A5F3FC" font-weight="500">route</text></g><g class="lp1"><rect x="101.1" y="506.0" width="86.0" height="28" rx="14.0" fill="#3B82F6" fill-opacity="0.16" stroke="url(#tg-blue)"/><circle cx="115.1" cy="520.0" r="9.0" fill="#93C5FD"/><g transform="translate(115.1 520.0) scale(1.73077)"><path d="M-2-3L3 0-2 3Z" fill="#090C11"/></g><text x="130.125" y="524.5" class="s" font-size="12.5" fill="#BFDBFE" font-weight="500">execute</text></g><g class="lp2"><rect x="195.1" y="506.0" width="72.9" height="28" rx="14.0" fill="#22C55E" fill-opacity="0.16" stroke="url(#tg-green)"/><circle cx="209.1" cy="520.0" r="9.0" fill="#86EFAC"/><g transform="translate(209.1 520.0) scale(1.73077)"><path d="M-3 .2L-1 2.2 3-2" fill="none" stroke="#090C11" stroke-width="0.87" stroke-linecap="round" stroke-linejoin="round"/></g><text x="224.125" y="524.5" class="s" font-size="12.5" fill="#BBF7D0" font-weight="500">verify</text></g><g class="lp3"><rect x="276.0" y="506.0" width="62.2" height="28" rx="14.0" fill="#EAB308" fill-opacity="0.16" stroke="url(#tg-yellow)"/><circle cx="290.0" cy="520.0" r="9.0" fill="#FDE047"/><g transform="translate(290.0 520.0) scale(1.73077)"><path d="M-1.2-3H-3V3H-1.2M1.2-3H3V3H1.2" fill="none" stroke="#090C11" stroke-width="0.87" stroke-linecap="round" stroke-linejoin="round"/></g><text x="305" y="524.5" class="s" font-size="12.5" fill="#FEF08A" font-weight="500">cite</text></g><g class="lp4"><rect x="24.0" y="544.0" width="69.1" height="28" rx="14.0" fill="#8B5CF6" fill-opacity="0.16" stroke="url(#tg-violet)"/><circle cx="38.0" cy="558.0" r="9.0" fill="#C4B5FD"/><g transform="translate(38.0 558.0) scale(1.73077)"><path d="M-4 0H-2.4L-1.2-2.6.6 2.6 1.8 0H4" fill="none" stroke="#090C11" stroke-width="0.87" stroke-linecap="round" stroke-linejoin="round"/></g><text x="53" y="562.5" class="s" font-size="12.5" fill="#DDD6FE" font-weight="500">trace</text></g><path d="M24 598H376" stroke="#FFFFFF" stroke-opacity="0.1"/><text x="24" y="626" class="m" font-size="11" fill="#7D8796" letter-spacing="1">HACKERRANK ORCHESTRATE FINALIST</text></svg>
